{
  "accessors": [
    {
      "bufferView": 2,
      "componentType": 5126,
      "count": 664,
      "max": [
        3.6229979991912842,
        4.8916597366333008,
        3.839076042175293
      ],
      "min": [
        -3.6229979991912842,
        -4.840235710144043,
        -3.8390758037567139
      ],
      "type": "VEC3"
    },
    {
      "bufferView": 2,
      "byteOffset": 7968,
      "componentType": 5126,
      "count": 664,
      "max": [
        1,
        1,
        1
      ],
      "min": [
        -1,
        -1,
        -1
      ],
      "type": "VEC3"
    },
    {
      "bufferView": 3,
      "componentType": 5126,
      "count": 664,
      "max": [
        1,
        1,
        0.89047515392303467,
        1
      ],
      "min": [
        -1,
        -1,
        -0.90540647506713867,
        1
      ],
      "type": "VEC4"
    },
    {
      "bufferView": 1,
      "componentType": 5126,
      "count": 664,
      "max": [
        0.98622769117355347,
        0.99047178030014038
      ],
      "min": [
        0.016141310334205627,
        0.010840111412107944
      ],
      "type": "VEC2"
    },
    {
      "bufferView": 0,
      "componentType": 5125,
      "count": 2904,
      "max": [
        663
      ],
      "min": [
        0
      ],
      "type": "SCALAR"
    },
    {
      "bufferView": 2,
      "byteOffset": 15936,
      "componentType": 5126,
      "count": 24,
      "max": [
        2.8975577354431152,
        2.8975529670715332,
        2.8159604072570801
      ],
      "min": [
        -2.8975594043731689,
        -2.8975636959075928,
        2.8159604072570801
      ],
      "type": "VEC3"
    },
    {
      "bufferView": 2,
      "byteOffset": 16224,
      "componentType": 5126,
      "count": 24,
      "max": [
        0,
        0,
        1
      ],
      "min": [
        0,
        0,
        1
      ],
      "type": "VEC3"
    },
    {
      "bufferView": 3,
      "byteOffset": 10624,
      "componentType": 5126,
      "count": 24,
      "max": [
        -0.060279969125986099,
        -0.99817508459091187,
        0,
        1
      ],
      "min": [
        -0.060387745499610901,
        -0.99818158149719238,
        0,
        1
      ],
      "type": "VEC4"
    },
    {
      "bufferView": 1,
      "byteOffset": 5312,
      "componentType": 5126,
      "count": 24,
      "max": [
        0.74660634994506836,
        0.98368090391159058
      ],
      "min": [
        0.53518551588058472,
        0.77226006984710693
      ],
      "type": "VEC2"
    },
    {
      "bufferView": 0,
      "byteOffset": 11616,
      "componentType": 5125,
      "count": 66,
      "max": [
        23
      ],
      "min": [
        0
      ],
      "type": "SCALAR"
    },
    {
      "bufferView": 2,
      "byteOffset": 16512,
      "componentType": 5126,
      "count": 65,
      "max": [
        2.8016252517700195,
        2.8016252517700195,
        2.8447797298431396
      ],
      "min": [
        -2.8016252517700195,
        -2.8016252517700195,
        -1.1661369800567627
      ],
      "type": "VEC3"
    },
    {
      "bufferView": 2,
      "byteOffset": 17292,
      "componentType": 5126,
      "count": 65,
      "max": [
        0.99644100666046143,
        0.9964410662651062,
        0.57383102178573608
      ],
      "min": [
        -0.9964410662651062,
        -0.99644094705581665,
        0.084293171763420105
      ],
      "type": "VEC3"
    },
    {
      "bufferView": 3,
      "byteOffset": 11008,
      "componentType": 5126,
      "count": 65,
      "max": [
        0.99974501132965088,
        1,
        0.12446076422929764,
        1
      ],
      "min": [
        -1,
        -1,
        -0.12446076422929764,
        1
      ],
      "type": "VEC4"
    },
    {
      "bufferView": 1,
      "byteOffset": 5504,
      "componentType": 5126,
      "count": 65,
      "max": [
        0.45709085464477539,
        0.77027422189712524
      ],
      "min": [
        0.016141310334205627,
        0.62367326021194458
      ],
      "type": "VEC2"
    },
    {
      "bufferView": 0,
      "byteOffset": 11880,
      "componentType": 5125,
      "count": 288,
      "max": [
        64
      ],
      "min": [
        0
      ],
      "type": "SCALAR"
    },
    {
      "bufferView": 2,
      "byteOffset": 18072,
      "componentType": 5126,
      "count": 65,
      "max": [
        2.0551571846008301,
        2.0551571846008301,
        2.8447797298431396
      ],
      "min": [
        -2.0551571846008301,
        -2.0551571846008301,
        -1.1661369800567627
      ],
      "type": "VEC3"
    },
    {
      "bufferView": 2,
      "byteOffset": 18852,
      "componentType": 5126,
      "count": 65,
      "max": [
        0.99808019399642944,
        0.99808019399642944,
        0.45713534951210022
      ],
      "min": [
        -0.99808019399642944,
        -0.99808019399642944,
        0.06193576380610466
      ],
      "type": "VEC3"
    },
    {
      "bufferView": 3,
      "byteOffset": 12048,
      "componentType": 5126,
      "count": 65,
      "max": [
        0.99986231327056885,
        1,
        0.10813324898481369,
        1
      ],
      "min": [
        -1,
        -1,
        -0.10813324153423309,
        1
      ],
      "type": "VEC4"
    },
    {
      "bufferView": 1,
      "byteOffset": 6024,
      "componentType": 5126,
      "count": 65,
      "max": [
        0.85128134489059448,
        0.75470781326293945
      ],
      "min": [
        0.48210328817367554,
        0.63196873664855957
      ],
      "type": "VEC2"
    },
    {
      "bufferView": 0,
      "byteOffset": 13032,
      "componentType": 5125,
      "count": 288,
      "max": [
        64
      ],
      "min": [
        0
      ],
      "type": "SCALAR"
    },
    {
      "bufferView": 4,
      "componentType": 5126,
      "count": 101,
      "max": [
        3.3333332538604736
      ],
      "min": [
        0
      ],
      "type": "SCALAR"
    },
    {
      "bufferView": 5,
      "componentType": 5126,
      "count": 101,
      "max": [
        9.9043025970458984,
        79.408843994140625,
        56.590316772460938
      ],
      "min": [
        9.9043025970458984,
        79.408843994140625,
        46.377464294433594
      ],
      "type": "VEC3"
    },
    {
      "bufferView": 4,
      "byteOffset": 404,
      "componentType": 5126,
      "count": 101,
      "max": [
        3.3333332538604736
      ],
      "min": [
        0
      ],
      "type": "SCALAR"
    },
    {
      "bufferView": 5,
      "byteOffset": 1212,
      "componentType": 5126,
      "count": 101,
      "max": [
        9.904301643371582,
        84.169631958007812,
        64.612739562988281
      ],
      "min": [
        9.904301643371582,
        84.169631958007812,
        57.80755615234375
      ],
      "type": "VEC3"
    },
    {
      "bufferView": 4,
      "byteOffset": 808,
      "componentType": 5126,
      "count": 101,
      "max": [
        3.3333332538604736
      ],
      "min": [
        0
      ],
      "type": "SCALAR"
    },
    {
      "bufferView": 5,
      "byteOffset": 2424,
      "componentType": 5126,
      "count": 101,
      "max": [
        9.904301643371582,
        84.169631958007812,
        72.085723876953125
      ],
      "min": [
        9.904301643371582,
        84.169631958007812,
        57.80755615234375
      ],
      "type": "VEC3"
    }
  ],
  "animations": [
    {
      "channels": [
        {
          "sampler": 0,
          "target": {
            "node": 5,
            "path": "translation"
          }
        },
        {
          "sampler": 1,
          "target": {
            "node": 9,
            "path": "translation"
          }
        },
        {
          "sampler": 2,
          "target": {
            "node": 11,
            "path": "translation"
          }
        }
      ],
      "name": "Take 001",
      "samplers": [
        {
          "input": 20,
          "interpolation": "LINEAR",
          "output": 21
        },
        {
          "input": 22,
          "interpolation": "LINEAR",
          "output": 23
        },
        {
          "input": 24,
          "interpolation": "LINEAR",
          "output": 25
        }
      ]
    }
  ],
  "asset": {
    "extras": {
      "author": "Kozlov Maksim (https://sketchfab.com/kozlovchik)",
      "license": "CC-BY-4.0 (http://creativecommons.org/licenses/by/4.0/)",
      "source": "https://sketchfab.com/3d-models/cup-of-coffee-5c42468141cd446b8815b09a8e203f6c",
      "title": "Cup Of Coffee"
    },
    "generator": "Sketchfab-9.28.1",
    "version": "2.0"
  },
  "bufferViews": [
    {
      "buffer": 0,
      "byteLength": 14184,
      "byteOffset": 0,
      "name": "floatBufferViews",
      "target": 34963
    },
    {
      "buffer": 0,
      "byteLength": 6544,
      "byteOffset": 14184,
      "byteStride": 8,
      "name": "floatBufferViews",
      "target": 34962
    },
    {
      "buffer": 0,
      "byteLength": 19632,
      "byteOffset": 20728,
      "byteStride": 12,
      "name": "floatBufferViews",
      "target": 34962
    },
    {
      "buffer": 0,
      "byteLength": 13088,
      "byteOffset": 40360,
      "byteStride": 16,
      "name": "floatBufferViews",
      "target": 34962
    },
    {
      "buffer": 0,
      "byteLength": 1212,
      "byteOffset": 53448,
      "name": "floatBufferViews"
    },
    {
      "buffer": 0,
      "byteLength": 3636,
      "byteOffset": 54660,
      "byteStride": 12,
      "name": "floatBufferViews"
    }
  ],
  "buffers": [
    {
      "byteLength": 58296,
      "uri": "scene.bin"
    }
  ],
  "images": [
    {
      "uri": "textures/Scene_-_Root_baseColor.png"
    },
    {
      "uri": "textures/Scene_-_Root_metallicRoughness.png"
    },
    {
      "uri": "textures/Scene_-_Root_emissive.jpeg"
    },
    {
      "uri": "textures/Scene_-_Root_normal.png"
    }
  ],
  "materials": [
    {
      "alphaMode": "BLEND",
      "doubleSided": true,
      "emissiveFactor": [
        1,
        1,
        1
      ],
      "emissiveTexture": {
        "index": 2,
        "texCoord": 0
      },
      "name": "Scene_-_Root",
      "normalTexture": {
        "index": 3,
        "scale": 1,
        "texCoord": 0
      },
      "occlusionTexture": {
        "index": 1,
        "strength": 1,
        "texCoord": 0
      },
      "pbrMetallicRoughness": {
        "baseColorFactor": [
          1,
          1,
          1,
          1
        ],
        "baseColorTexture": {
          "index": 0,
          "texCoord": 0
        },
        "metallicFactor": 1,
        "metallicRoughnessTexture": {
          "index": 1,
          "texCoord": 0
        },
        "roughnessFactor": 1
      }
    }
  ],
  "meshes": [
    {
      "name": "Cylinder168__0",
      "primitives": [
        {
          "attributes": {
            "NORMAL": 1,
            "POSITION": 0,
            "TANGENT": 2,
            "TEXCOORD_0": 3
          },
          "indices": 4,
          "material": 0,
          "mode": 4
        }
      ]
    },
    {
      "name": "Object021__0",
      "primitives": [
        {
          "attributes": {
            "NORMAL": 6,
            "POSITION": 5,
            "TANGENT": 7,
            "TEXCOORD_0": 8
          },
          "indices": 9,
          "material": 0,
          "mode": 4
        }
      ]
    },
    {
      "name": "Cylinder169__0",
      "primitives": [
        {
          "attributes": {
            "NORMAL": 11,
            "POSITION": 10,
            "TANGENT": 12,
            "TEXCOORD_0": 13
          },
          "indices": 14,
          "material": 0,
          "mode": 4
        }
      ]
    },
    {
      "name": "Cylinder171__0",
      "primitives": [
        {
          "attributes": {
            "NORMAL": 16,
            "POSITION": 15,
            "TANGENT": 17,
            "TEXCOORD_0": 18
          },
          "indices": 19,
          "material": 0,
          "mode": 4
        }
      ]
    }
  ],
  "nodes": [
    {
      "children": [
        1
      ],
      "name": "RootNode (gltf orientation matrix)",
      "rotation": [
        -0.70710678118654746,
        -0,
        -0,
        0.70710678118654757
      ]
    },
    {
      "children": [
        2
      ],
      "name": "RootNode (model correction matrix)"
    },
    {
      "children": [
        3
      ],
      "matrix": [
        1,
        0,
        0,
        0,
        0,
        0,
        1,
        0,
        0,
        -1,
        0,
        0,
        0,
        0,
        0,
        1
      ],
      "name": "f215b1c1b13a41e3829934ded774446d.fbx"
    },
    {
      "children": [
        4
      ],
      "name": ""
    },
    {
      "children": [
        5,
        7,
        9,
        11
      ],
      "name": "RootNode"
    },
    {
      "children": [
        6
      ],
      "name": "Cylinder168",
      "rotation": [
        -0.7071068286895752,
        -0,
        0,
        0.7071068286895752
      ],
      "translation": [
        9.9043025970458984,
        79.408843994140625,
        56.590316772460938
      ]
    },
    {
      "mesh": 0,
      "name": "Cylinder168__0"
    },
    {
      "children": [
        8
      ],
      "name": "Object021",
      "rotation": [
        -0.7071068286895752,
        -0,
        0,
        0.7071068286895752
      ],
      "translation": [
        9.904301643371582,
        80.08929443359375,
        57.80755615234375
      ]
    },
    {
      "mesh": 1,
      "name": "Object021__0"
    },
    {
      "children": [
        10
      ],
      "name": "Cylinder169",
      "rotation": [
        -0.7071068286895752,
        -0,
        0,
        0.7071068286895752
      ],
      "translation": [
        9.904301643371582,
        84.169631958007812,
        57.80755615234375
      ]
    },
    {
      "mesh": 2,
      "name": "Cylinder169__0"
    },
    {
      "children": [
        12
      ],
      "name": "Cylinder171",
      "rotation": [
        -0.7071068286895752,
        -0,
        0,
        0.7071068286895752
      ],
      "translation": [
        9.904301643371582,
        84.169631958007812,
        57.80755615234375
      ]
    },
    {
      "mesh": 3,
      "name": "Cylinder171__0"
    }
  ],
  "samplers": [
    {
      "magFilter": 9729,
      "minFilter": 9987,
      "wrapS": 10497,
      "wrapT": 10497
    }
  ],
  "scene": 0,
  "scenes": [
    {
      "name": "OSG_Scene",
      "nodes": [
        0
      ]
    }
  ],
  "textures": [
    {
      "sampler": 0,
      "source": 0
    },
    {
      "sampler": 0,
      "source": 1
    },
    {
      "sampler": 0,
      "source": 2
    },
    {
      "sampler": 0,
      "source": 3
    }
  ]
}

